<?xml version="1.0" encoding="UTF-8" standalone="no"?>
<svg
   width="732.205pt"
   height="91.7356pt"
   viewBox="0 0 732.205 91.7356"
   version="1.2"
   id="svg259"
   sodipodi:docname="IMCSULlogoEN.svg"
   inkscape:version="1.1 (c68e22c387, 2021-05-23)"
   xmlns:inkscape="http://www.inkscape.org/namespaces/inkscape"
   xmlns:sodipodi="http://sodipodi.sourceforge.net/DTD/sodipodi-0.dtd"
   xmlns:xlink="http://www.w3.org/1999/xlink"
   xmlns="http://www.w3.org/2000/svg"
   xmlns:svg="http://www.w3.org/2000/svg">
  <sodipodi:namedview
     id="namedview261"
     pagecolor="#505050"
     bordercolor="#ffffff"
     borderopacity="1"
     inkscape:pageshadow="0"
     inkscape:pageopacity="0"
     inkscape:pagecheckerboard="1"
     inkscape:document-units="pt"
     showgrid="false"
     inkscape:zoom="1.7484857"
     inkscape:cx="488.13668"
     inkscape:cy="60.909849"
     inkscape:window-width="1920"
     inkscape:window-height="1017"
     inkscape:window-x="-8"
     inkscape:window-y="-8"
     inkscape:window-maximized="1"
     inkscape:current-layer="svg259" />
  <defs
     id="defs86">
    <g
       id="g84">
      <symbol
         overflow="visible"
         id="glyph0-0">
        <path
           style="stroke:none;"
           d="M 0 0 L 15.96875 0 L 15.96875 -27.0625 L 0 -27.0625 Z M 7.984375 -15.265625 L 2.5625 -25.125 L 13.421875 -25.125 Z M 8.953125 -13.53125 L 14.375 -23.390625 L 14.375 -3.671875 Z M 2.5625 -1.9375 L 7.984375 -11.796875 L 13.421875 -1.9375 Z M 1.59375 -23.390625 L 7.03125 -13.53125 L 1.59375 -3.671875 Z M 1.59375 -23.390625 "
           id="path9" />
      </symbol>
      <symbol
         overflow="visible"
         id="glyph0-1">
        <path
           style="stroke:none;"
           d="M 2.421875 -26.046875 L 2.421875 0 L 5.203125 0 L 5.203125 -26.046875 Z M 2.421875 -26.046875 "
           id="path12" />
      </symbol>
      <symbol
         overflow="visible"
         id="glyph0-2">
        <path
           style="stroke:none;"
           d="M 2.328125 0 L 5.140625 0 L 5.140625 -11.25 C 5.140625 -11.828125 5.203125 -12.40625 5.34375 -12.828125 C 5.8125 -14.734375 7.25 -16.3125 9.109375 -16.3125 C 11.765625 -16.3125 12.6875 -13.796875 12.6875 -10.78125 L 12.6875 0 L 15.5 0 L 15.5 -11.171875 C 15.5 -17.59375 12.171875 -19.140625 10.03125 -19.140625 C 7.484375 -19.140625 5.6875 -17.390625 4.921875 -15.609375 L 4.859375 -15.609375 L 4.703125 -18.703125 L 2.203125 -18.703125 C 2.296875 -17.15625 2.328125 -15.578125 2.328125 -13.640625 Z M 2.328125 0 "
           id="path15" />
      </symbol>
      <symbol
         overflow="visible"
         id="glyph0-3">
        <path
           style="stroke:none;"
           d="M 1.25 -0.890625 C 2.328125 -0.109375 3.890625 0.390625 5.59375 0.390625 C 9.265625 0.390625 11.375 -1.9375 11.375 -5.21875 C 11.375 -8 10 -9.625 7.3125 -10.859375 C 5.296875 -11.796875 4.375 -12.484375 4.375 -14.03125 C 4.375 -15.421875 5.296875 -16.578125 6.96875 -16.578125 C 8.40625 -16.578125 9.515625 -15.96875 10.125 -15.5 L 10.828125 -17.96875 C 9.96875 -18.59375 8.59375 -19.140625 7.03125 -19.140625 C 3.703125 -19.140625 1.6875 -16.65625 1.6875 -13.640625 C 1.6875 -11.40625 3 -9.546875 5.78125 -8.34375 C 7.859375 -7.421875 8.65625 -6.53125 8.65625 -4.90625 C 8.65625 -3.359375 7.703125 -2.125 5.65625 -2.125 C 4.25 -2.125 2.78125 -2.828125 1.953125 -3.484375 Z M 1.25 -0.890625 "
           id="path18" />
      </symbol>
      <symbol
         overflow="visible"
         id="glyph0-4">
        <path
           style="stroke:none;"
           d="M 2.96875 -23.1875 L 2.96875 -18.703125 L 0.578125 -18.703125 L 0.578125 -16.125 L 2.96875 -16.125 L 2.96875 -5.921875 C 2.96875 -3.71875 3.265625 -2.046875 4.0625 -1.046875 C 4.734375 -0.109375 5.78125 0.390625 7.09375 0.390625 C 8.1875 0.390625 9.046875 0.1875 9.578125 -0.078125 L 9.453125 -2.625 C 9.109375 -2.515625 8.5625 -2.390625 7.828125 -2.390625 C 6.265625 -2.390625 5.71875 -3.71875 5.71875 -6.03125 L 5.71875 -16.125 L 9.75 -16.125 L 9.75 -18.703125 L 5.71875 -18.703125 L 5.71875 -24.078125 Z M 2.96875 -23.1875 "
           id="path21" />
      </symbol>
      <symbol
         overflow="visible"
         id="glyph0-5">
        <path
           style="stroke:none;"
           d="M 5.140625 0 L 5.140625 -18.703125 L 2.328125 -18.703125 L 2.328125 0 Z M 3.734375 -26.09375 C 2.71875 -26.09375 1.984375 -25.171875 1.984375 -23.96875 C 1.984375 -22.8125 2.6875 -21.875 3.671875 -21.875 C 4.796875 -21.875 5.5 -22.8125 5.46875 -23.96875 C 5.46875 -25.171875 4.796875 -26.09375 3.734375 -26.09375 Z M 3.734375 -26.09375 "
           id="path24" />
      </symbol>
      <symbol
         overflow="visible"
         id="glyph0-6">
        <path
           style="stroke:none;"
           d="M 15.28125 -18.703125 L 12.46875 -18.703125 L 12.46875 -7.234375 C 12.46875 -6.609375 12.359375 -5.984375 12.203125 -5.484375 C 11.6875 -3.984375 10.390625 -2.390625 8.5 -2.390625 C 5.9375 -2.390625 5.046875 -4.796875 5.046875 -8.34375 L 5.046875 -18.703125 L 2.234375 -18.703125 L 2.234375 -7.765625 C 2.234375 -1.203125 5.140625 0.421875 7.578125 0.421875 C 10.328125 0.421875 11.953125 -1.546875 12.6875 -3.046875 L 12.75 -3.046875 L 12.90625 0 L 15.40625 0 C 15.3125 -1.46875 15.28125 -3.171875 15.28125 -5.109375 Z M 15.28125 -18.703125 "
           id="path27" />
      </symbol>
      <symbol
         overflow="visible"
         id="glyph0-7">
        <path
           style="stroke:none;"
           d="M 14.765625 -8.734375 C 14.796875 -9.078125 14.859375 -9.625 14.859375 -10.328125 C 14.859375 -13.765625 13.515625 -19.140625 8.46875 -19.140625 C 3.96875 -19.140625 1.21875 -14.6875 1.21875 -9.046875 C 1.21875 -3.40625 4.0625 0.390625 8.8125 0.390625 C 11.28125 0.390625 12.96875 -0.234375 13.96875 -0.765625 L 13.484375 -3.203125 C 12.4375 -2.671875 11.21875 -2.234375 9.203125 -2.234375 C 6.390625 -2.234375 3.96875 -4.140625 3.890625 -8.734375 Z M 3.9375 -11.171875 C 4.15625 -13.53125 5.40625 -16.703125 8.25 -16.703125 C 11.40625 -16.703125 12.171875 -13.34375 12.140625 -11.171875 Z M 3.9375 -11.171875 "
           id="path30" />
      </symbol>
      <symbol
         overflow="visible"
         id="glyph0-8">
        <path
           style="stroke:none;"
           d=""
           id="path33" />
      </symbol>
      <symbol
         overflow="visible"
         id="glyph0-9">
        <path
           style="stroke:none;"
           d="M 8.890625 -19.140625 C 4.59375 -19.140625 1.21875 -15.46875 1.21875 -9.203125 C 1.21875 -3.28125 4.4375 0.421875 8.625 0.421875 C 12.359375 0.421875 16.328125 -2.59375 16.328125 -9.515625 C 16.328125 -15.234375 13.328125 -19.140625 8.890625 -19.140625 Z M 8.8125 -16.578125 C 12.140625 -16.578125 13.453125 -12.5625 13.453125 -9.390625 C 13.453125 -5.1875 11.4375 -2.125 8.75 -2.125 C 6 -2.125 4.0625 -5.21875 4.0625 -9.3125 C 4.0625 -12.875 5.5 -16.578125 8.8125 -16.578125 Z M 8.8125 -16.578125 "
           id="path36" />
      </symbol>
      <symbol
         overflow="visible"
         id="glyph0-10">
        <path
           style="stroke:none;"
           d="M 5.40625 0 L 5.40625 -16.125 L 9.140625 -16.125 L 9.140625 -18.703125 L 5.40625 -18.703125 L 5.40625 -19.71875 C 5.40625 -22.578125 6 -25.125 8.40625 -25.125 C 9.203125 -25.125 9.78125 -24.9375 10.1875 -24.703125 L 10.578125 -27.328125 C 10.03125 -27.59375 9.171875 -27.875 8.1875 -27.875 C 6.875 -27.875 5.46875 -27.375 4.40625 -26.125 C 3.09375 -24.625 2.625 -22.234375 2.625 -19.59375 L 2.625 -18.703125 L 0.453125 -18.703125 L 0.453125 -16.125 L 2.625 -16.125 L 2.625 0 Z M 5.40625 0 "
           id="path39" />
      </symbol>
      <symbol
         overflow="visible"
         id="glyph0-11">
        <path
           style="stroke:none;"
           d="M 21.125 0 L 23.84375 0 L 22.5 -26.046875 L 18.953125 -26.046875 L 15.109375 -13.453125 C 14.15625 -10.171875 13.390625 -7.3125 12.84375 -4.671875 L 12.75 -4.671875 C 12.203125 -7.390625 11.46875 -10.25 10.578125 -13.453125 L 6.90625 -26.046875 L 3.359375 -26.046875 L 1.859375 0 L 4.5 0 L 5.078125 -11.171875 C 5.265625 -15.078125 5.4375 -19.4375 5.5 -22.6875 L 5.5625 -22.6875 C 6.171875 -19.59375 7.03125 -16.234375 8.046875 -12.5625 L 11.53125 -0.15625 L 13.640625 -0.15625 L 17.453125 -12.796875 C 18.53125 -16.390625 19.421875 -19.640625 20.15625 -22.6875 L 20.265625 -22.6875 C 20.21875 -19.4375 20.421875 -15.078125 20.578125 -11.4375 Z M 21.125 0 "
           id="path42" />
      </symbol>
      <symbol
         overflow="visible"
         id="glyph0-12">
        <path
           style="stroke:none;"
           d="M 13.453125 0 C 13.265625 -1.28125 13.203125 -2.859375 13.203125 -4.484375 L 13.203125 -11.484375 C 13.203125 -15.234375 12.046875 -19.140625 7.3125 -19.140625 C 5.375 -19.140625 3.515625 -18.484375 2.234375 -17.46875 L 2.875 -15.234375 C 3.96875 -16.078125 5.46875 -16.625 6.90625 -16.625 C 10.0625 -16.625 10.421875 -13.84375 10.421875 -12.296875 L 10.421875 -11.90625 C 4.4375 -11.9375 1.125 -9.46875 1.125 -4.953125 C 1.125 -2.234375 2.71875 0.421875 5.84375 0.421875 C 8.046875 0.421875 9.71875 -0.890625 10.578125 -2.359375 L 10.671875 -2.359375 L 10.890625 0 Z M 10.484375 -6.296875 C 10.484375 -5.953125 10.421875 -5.5625 10.328125 -5.21875 C 9.875 -3.640625 8.59375 -2.09375 6.578125 -2.09375 C 5.140625 -2.09375 3.9375 -3.125 3.9375 -5.328125 C 3.9375 -8.96875 7.40625 -9.625 10.484375 -9.546875 Z M 10.484375 -6.296875 "
           id="path45" />
      </symbol>
      <symbol
         overflow="visible"
         id="glyph0-13">
        <path
           style="stroke:none;"
           d="M 2.328125 0 L 5.140625 0 L 5.140625 -11.28125 C 5.140625 -11.9375 5.171875 -12.453125 5.34375 -12.90625 C 5.84375 -14.765625 7.28125 -16.3125 9.109375 -16.3125 C 11.765625 -16.3125 12.6875 -13.765625 12.6875 -10.75 L 12.6875 0 L 15.5 0 L 15.5 -11.140625 C 15.5 -17.59375 12.171875 -19.140625 10.09375 -19.140625 C 9.046875 -19.140625 8.046875 -18.75 7.21875 -18.171875 C 6.359375 -17.59375 5.65625 -16.734375 5.203125 -15.765625 L 5.140625 -15.765625 L 5.140625 -27.453125 L 2.328125 -27.453125 Z M 2.328125 0 "
           id="path48" />
      </symbol>
      <symbol
         overflow="visible"
         id="glyph0-14">
        <path
           style="stroke:none;"
           d="M 2.328125 0 L 5.078125 0 L 5.078125 -11.28125 C 5.078125 -11.875 5.140625 -12.453125 5.296875 -12.953125 C 5.75 -14.65625 7.03125 -16.359375 8.78125 -16.359375 C 10.921875 -16.359375 12.015625 -14.1875 12.015625 -11.203125 L 12.015625 0 L 14.765625 0 L 14.765625 -11.5625 C 14.765625 -12.171875 14.859375 -12.796875 14.984375 -13.265625 C 15.46875 -14.921875 16.71875 -16.359375 18.3125 -16.359375 C 20.578125 -16.359375 21.671875 -14.1875 21.671875 -10.59375 L 21.671875 0 L 24.40625 0 L 24.40625 -11.015625 C 24.40625 -17.515625 21.375 -19.140625 19.328125 -19.140625 C 17.859375 -19.140625 16.84375 -18.671875 15.90625 -17.828125 C 15.28125 -17.234375 14.671875 -16.421875 14.1875 -15.390625 L 14.125 -15.390625 C 13.453125 -17.59375 11.859375 -19.140625 9.75 -19.140625 C 7.1875 -19.140625 5.75 -17.46875 4.890625 -15.6875 L 4.796875 -15.6875 L 4.671875 -18.703125 L 2.203125 -18.703125 C 2.296875 -17.15625 2.328125 -15.578125 2.328125 -13.640625 Z M 2.328125 0 "
           id="path51" />
      </symbol>
      <symbol
         overflow="visible"
         id="glyph0-15">
        <path
           style="stroke:none;"
           d="M 12.875 -3.25 C 12.078125 -2.828125 11.03125 -2.3125 9.421875 -2.3125 C 6.359375 -2.3125 4.0625 -4.984375 4.0625 -9.3125 C 4.0625 -13.21875 5.96875 -16.390625 9.515625 -16.390625 C 11.0625 -16.390625 12.109375 -15.96875 12.78125 -15.5 L 13.421875 -18.125 C 12.65625 -18.59375 11.1875 -19.09375 9.515625 -19.09375 C 4.46875 -19.09375 1.21875 -14.921875 1.21875 -9.15625 C 1.21875 -3.4375 4.25 0.390625 8.921875 0.390625 C 10.984375 0.390625 12.625 -0.234375 13.359375 -0.703125 Z M 12.875 -3.25 "
           id="path54" />
      </symbol>
      <symbol
         overflow="visible"
         id="glyph0-16">
        <path
           style="stroke:none;"
           d="M 12.875 -27.453125 L 12.875 -16.28125 L 12.8125 -16.28125 C 12.109375 -17.78125 10.515625 -19.140625 8.140625 -19.140625 C 4.375 -19.140625 1.1875 -15.3125 1.21875 -9.078125 C 1.21875 -3.40625 4.09375 0.421875 7.828125 0.421875 C 10.359375 0.421875 12.234375 -1.15625 13.09375 -3.25 L 13.171875 -3.25 L 13.296875 0 L 15.8125 0 C 15.71875 -1.28125 15.6875 -3.171875 15.6875 -4.828125 L 15.6875 -27.453125 Z M 12.875 -7.84375 C 12.875 -7.3125 12.84375 -6.84375 12.75 -6.375 C 12.234375 -3.828125 10.515625 -2.3125 8.625 -2.3125 C 5.59375 -2.3125 4.0625 -5.453125 4.0625 -9.234375 C 4.0625 -13.375 5.78125 -16.46875 8.6875 -16.46875 C 10.796875 -16.46875 12.328125 -14.6875 12.75 -12.53125 C 12.84375 -12.09375 12.875 -11.515625 12.875 -11.09375 Z M 12.875 -7.84375 "
           id="path57" />
      </symbol>
      <symbol
         overflow="visible"
         id="glyph0-17">
        <path
           style="stroke:none;"
           d="M 16.90625 -3.515625 C 15.78125 -2.859375 14.0625 -2.4375 12.359375 -2.4375 C 7.125 -2.4375 4.09375 -6.53125 4.09375 -12.90625 C 4.09375 -19.75 7.4375 -23.65625 12.5 -23.65625 C 14.28125 -23.65625 15.78125 -23.1875 16.84375 -22.578125 L 17.515625 -25.3125 C 16.78125 -25.78125 15.078125 -26.484375 12.390625 -26.484375 C 5.71875 -26.484375 1.15625 -20.953125 1.15625 -12.796875 C 1.15625 -4.25 5.71875 0.390625 11.796875 0.390625 C 14.40625 0.390625 16.453125 -0.234375 17.484375 -0.84375 Z M 16.90625 -3.515625 "
           id="path60" />
      </symbol>
      <symbol
         overflow="visible"
         id="glyph0-18">
        <path
           style="stroke:none;"
           d="M 2.328125 7.65625 L 5.109375 7.65625 L 5.109375 -2.515625 L 5.171875 -2.515625 C 6.109375 -0.65625 7.890625 0.421875 9.9375 0.421875 C 13.578125 0.421875 16.96875 -2.90625 16.96875 -9.625 C 16.96875 -15.3125 14.15625 -19.140625 10.421875 -19.140625 C 7.890625 -19.140625 6.078125 -17.78125 4.921875 -15.5 L 4.859375 -15.5 L 4.734375 -18.703125 L 2.203125 -18.703125 C 2.265625 -16.9375 2.328125 -15 2.328125 -12.609375 Z M 5.109375 -10.828125 C 5.109375 -11.28125 5.203125 -11.796875 5.296875 -12.21875 C 5.84375 -14.765625 7.640625 -16.421875 9.546875 -16.421875 C 12.53125 -16.421875 14.15625 -13.21875 14.15625 -9.46875 C 14.15625 -5.1875 12.4375 -2.234375 9.453125 -2.234375 C 7.4375 -2.234375 5.75 -3.859375 5.234375 -6.21875 C 5.171875 -6.65625 5.109375 -7.109375 5.109375 -7.609375 Z M 5.109375 -10.828125 "
           id="path63" />
      </symbol>
      <symbol
         overflow="visible"
         id="glyph0-19">
        <path
           style="stroke:none;"
           d="M 2.328125 0 L 5.109375 0 L 5.109375 -9.96875 C 5.109375 -10.546875 5.171875 -11.09375 5.234375 -11.5625 C 5.625 -14.109375 7.03125 -15.921875 9.015625 -15.921875 C 9.390625 -15.921875 9.6875 -15.890625 9.96875 -15.8125 L 9.96875 -19.015625 C 9.71875 -19.09375 9.484375 -19.140625 9.171875 -19.140625 C 7.28125 -19.140625 5.59375 -17.546875 4.890625 -15.03125 L 4.765625 -15.03125 L 4.671875 -18.703125 L 2.203125 -18.703125 C 2.296875 -16.96875 2.328125 -15.078125 2.328125 -12.875 Z M 2.328125 0 "
           id="path66" />
      </symbol>
      <symbol
         overflow="visible"
         id="glyph0-20">
        <path
           style="stroke:none;"
           d="M 1.34375 -1.28125 C 2.5 -0.34375 4.765625 0.390625 6.84375 0.390625 C 11.921875 0.390625 14.375 -3.09375 14.375 -7.109375 C 14.375 -10.9375 12.53125 -13.0625 8.890625 -14.765625 C 5.90625 -16.15625 4.59375 -17.359375 4.59375 -19.796875 C 4.59375 -21.5625 5.71875 -23.703125 8.65625 -23.703125 C 10.609375 -23.703125 12.046875 -22.921875 12.75 -22.453125 L 13.515625 -25.203125 C 12.5625 -25.859375 10.953125 -26.484375 8.75 -26.484375 C 4.5625 -26.484375 1.796875 -23.46875 1.796875 -19.40625 C 1.796875 -15.734375 3.96875 -13.53125 7.484375 -12.015625 C 10.390625 -10.671875 11.53125 -9.28125 11.53125 -6.84375 C 11.53125 -4.21875 9.875 -2.390625 7.03125 -2.390625 C 5.109375 -2.390625 3.296875 -3.171875 2.046875 -4.09375 Z M 1.34375 -1.28125 "
           id="path69" />
      </symbol>
      <symbol
         overflow="visible"
         id="glyph0-21">
        <path
           style="stroke:none;"
           d="M 2.390625 -26.046875 L 2.390625 -10.703125 C 2.390625 -2.625 5.71875 0.421875 10.125 0.421875 C 14.796875 0.421875 18.28125 -2.859375 18.28125 -10.859375 L 18.28125 -26.046875 L 15.46875 -26.046875 L 15.46875 -10.625 C 15.46875 -4.875 13.421875 -2.3125 10.21875 -2.3125 C 7.34375 -2.3125 5.203125 -4.796875 5.203125 -10.625 L 5.203125 -26.046875 Z M 2.390625 -26.046875 "
           id="path72" />
      </symbol>
      <symbol
         overflow="visible"
         id="glyph0-22">
        <path
           style="stroke:none;"
           d="M 0.421875 -18.703125 L 6.296875 0 L 8.984375 0 L 15.046875 -18.703125 L 12.109375 -18.703125 L 9.109375 -8.1875 C 8.59375 -6.5 8.140625 -4.953125 7.796875 -3.40625 L 7.703125 -3.40625 C 7.375 -4.953125 6.96875 -6.5 6.453125 -8.1875 L 3.421875 -18.703125 Z M 0.421875 -18.703125 "
           id="path75" />
      </symbol>
      <symbol
         overflow="visible"
         id="glyph0-23">
        <path
           style="stroke:none;"
           d="M 0.28125 -18.703125 L 6 -1.46875 C 6.140625 -1.046875 6.203125 -0.765625 6.203125 -0.578125 C 6.203125 -0.390625 6.109375 -0.109375 5.96875 0.234375 C 5.34375 1.96875 4.375 3.28125 3.609375 4.015625 C 2.78125 4.875 1.859375 5.40625 1.15625 5.6875 L 1.859375 8.546875 C 2.5625 8.390625 3.9375 7.8125 5.296875 6.34375 C 7.21875 4.328125 8.59375 1.046875 10.609375 -5.375 L 14.828125 -18.703125 L 11.859375 -18.703125 L 8.78125 -7.734375 C 8.40625 -6.375 8.078125 -4.953125 7.796875 -3.828125 L 7.734375 -3.828125 C 7.484375 -4.953125 7.09375 -6.421875 6.734375 -7.65625 L 3.359375 -18.703125 Z M 0.28125 -18.703125 "
           id="path78" />
      </symbol>
      <symbol
         overflow="visible"
         id="glyph0-24">
        <path
           style="stroke:none;"
           d="M 2.421875 0 L 14.40625 0 L 14.40625 -2.828125 L 5.203125 -2.828125 L 5.203125 -26.046875 L 2.421875 -26.046875 Z M 2.421875 0 "
           id="path81" />
      </symbol>
    </g>
  </defs>
  <g
     id="surface38734">
    <g
       style="fill:rgb(53.334045%,52.941895%,53.334045%);fill-opacity:1;"
       id="g90">
      <use
         xlink:href="#glyph0-1"
         x="100.3726"
         y="38.4568"
         id="use88" />
    </g>
    <g
       style="fill:rgb(53.334045%,52.941895%,53.334045%);fill-opacity:1;"
       id="g106">
      <use
         xlink:href="#glyph0-2"
         x="108.328125"
         y="38.4568"
         id="use92" />
      <use
         xlink:href="#glyph0-3"
         x="126.06032"
         y="38.4568"
         id="use94" />
      <use
         xlink:href="#glyph0-4"
         x="138.71248"
         y="38.4568"
         id="use96" />
      <use
         xlink:href="#glyph0-5"
         x="149.287897"
         y="38.4568"
         id="use98" />
      <use
         xlink:href="#glyph0-4"
         x="156.764173"
         y="38.4568"
         id="use100" />
      <use
         xlink:href="#glyph0-6"
         x="167.33959"
         y="38.4568"
         id="use102" />
      <use
         xlink:href="#glyph0-4"
         x="184.943985"
         y="38.4568"
         id="use104" />
    </g>
    <g
       style="fill:rgb(53.334045%,52.941895%,53.334045%);fill-opacity:1;"
       id="g120">
      <use
         xlink:href="#glyph0-7"
         x="195.327703"
         y="38.4568"
         id="use108" />
      <use
         xlink:href="#glyph0-8"
         x="211.334603"
         y="38.4568"
         id="use110" />
      <use
         xlink:href="#glyph0-9"
         x="218.107981"
         y="38.4568"
         id="use112" />
      <use
         xlink:href="#glyph0-10"
         x="235.648477"
         y="38.4568"
         id="use114" />
      <use
         xlink:href="#glyph0-8"
         x="244.977847"
         y="38.4568"
         id="use116" />
      <use
         xlink:href="#glyph0-11"
         x="251.751226"
         y="38.4568"
         id="use118" />
    </g>
    <g
       style="fill:rgb(53.334045%,52.941895%,53.334045%);fill-opacity:1;"
       id="g124">
      <use
         xlink:href="#glyph0-12"
         x="277.630645"
         y="38.4568"
         id="use122" />
    </g>
    <g
       style="fill:rgb(53.334045%,52.941895%,53.334045%);fill-opacity:1;"
       id="g136">
      <use
         xlink:href="#glyph0-4"
         x="292.902697"
         y="38.4568"
         id="use126" />
      <use
         xlink:href="#glyph0-13"
         x="303.478114"
         y="38.4568"
         id="use128" />
      <use
         xlink:href="#glyph0-7"
         x="321.210309"
         y="38.4568"
         id="use130" />
      <use
         xlink:href="#glyph0-14"
         x="337.217209"
         y="38.4568"
         id="use132" />
      <use
         xlink:href="#glyph0-12"
         x="363.863425"
         y="38.4568"
         id="use134" />
    </g>
    <g
       style="fill:rgb(53.334045%,52.941895%,53.334045%);fill-opacity:1;"
       id="g158">
      <use
         xlink:href="#glyph0-4"
         x="379.135477"
         y="38.4568"
         id="use138" />
      <use
         xlink:href="#glyph0-5"
         x="389.710894"
         y="38.4568"
         id="use140" />
      <use
         xlink:href="#glyph0-15"
         x="397.187171"
         y="38.4568"
         id="use142" />
      <use
         xlink:href="#glyph0-3"
         x="411.500726"
         y="38.4568"
         id="use144" />
      <use
         xlink:href="#glyph0-8"
         x="424.152887"
         y="38.4568"
         id="use146" />
      <use
         xlink:href="#glyph0-12"
         x="430.926265"
         y="38.4568"
         id="use148" />
      <use
         xlink:href="#glyph0-2"
         x="446.326117"
         y="38.4568"
         id="use150" />
      <use
         xlink:href="#glyph0-16"
         x="464.058312"
         y="38.4568"
         id="use152" />
      <use
         xlink:href="#glyph0-8"
         x="482.078055"
         y="38.4568"
         id="use154" />
      <use
         xlink:href="#glyph0-17"
         x="488.851434"
         y="38.4568"
         id="use156" />
    </g>
    <g
       style="fill:rgb(53.334045%,52.941895%,53.334045%);fill-opacity:1;"
       id="g170">
      <use
         xlink:href="#glyph0-9"
         x="507.030927"
         y="38.4568"
         id="use160" />
      <use
         xlink:href="#glyph0-14"
         x="524.571422"
         y="38.4568"
         id="use162" />
      <use
         xlink:href="#glyph0-18"
         x="551.217639"
         y="38.4568"
         id="use164" />
      <use
         xlink:href="#glyph0-6"
         x="569.397132"
         y="38.4568"
         id="use166" />
      <use
         xlink:href="#glyph0-4"
         x="587.001527"
         y="38.4568"
         id="use168" />
    </g>
    <g
       style="fill:rgb(53.334045%,52.941895%,53.334045%);fill-opacity:1;"
       id="g180">
      <use
         xlink:href="#glyph0-7"
         x="597.385244"
         y="38.4568"
         id="use172" />
      <use
         xlink:href="#glyph0-19"
         x="613.392144"
         y="38.4568"
         id="use174" />
      <use
         xlink:href="#glyph0-8"
         x="623.839762"
         y="38.4568"
         id="use176" />
      <use
         xlink:href="#glyph0-20"
         x="630.61314"
         y="38.4568"
         id="use178" />
    </g>
    <g
       style="fill:rgb(53.334045%,52.941895%,53.334045%);fill-opacity:1;"
       id="g192">
      <use
         xlink:href="#glyph0-15"
         x="646.556141"
         y="38.4568"
         id="use182" />
      <use
         xlink:href="#glyph0-5"
         x="660.869696"
         y="38.4568"
         id="use184" />
      <use
         xlink:href="#glyph0-7"
         x="668.345972"
         y="38.4568"
         id="use186" />
      <use
         xlink:href="#glyph0-2"
         x="684.352872"
         y="38.4568"
         id="use188" />
      <use
         xlink:href="#glyph0-15"
         x="702.085067"
         y="38.4568"
         id="use190" />
    </g>
    <g
       style="fill:rgb(53.334045%,52.941895%,53.334045%);fill-opacity:1;"
       id="g196">
      <use
         xlink:href="#glyph0-7"
         x="716.206923"
         y="38.4568"
         id="use194" />
    </g>
    <g
       style="fill:rgb(53.334045%,52.941895%,53.334045%);fill-opacity:1;"
       id="g206">
      <use
         xlink:href="#glyph0-21"
         x="100.3726"
         y="79.4568"
         id="use198" />
      <use
         xlink:href="#glyph0-2"
         x="121.044185"
         y="79.4568"
         id="use200" />
      <use
         xlink:href="#glyph0-5"
         x="138.77638"
         y="79.4568"
         id="use202" />
      <use
         xlink:href="#glyph0-22"
         x="146.252656"
         y="79.4568"
         id="use204" />
    </g>
    <g
       style="fill:rgb(53.334045%,52.941895%,53.334045%);fill-opacity:1;"
       id="g218">
      <use
         xlink:href="#glyph0-7"
         x="161.301059"
         y="79.4568"
         id="use208" />
      <use
         xlink:href="#glyph0-19"
         x="177.307959"
         y="79.4568"
         id="use210" />
      <use
         xlink:href="#glyph0-3"
         x="187.755576"
         y="79.4568"
         id="use212" />
      <use
         xlink:href="#glyph0-5"
         x="200.407737"
         y="79.4568"
         id="use214" />
      <use
         xlink:href="#glyph0-4"
         x="207.884013"
         y="79.4568"
         id="use216" />
    </g>
    <g
       style="fill:rgb(53.334045%,52.941895%,53.334045%);fill-opacity:1;"
       id="g234">
      <use
         xlink:href="#glyph0-23"
         x="218.746979"
         y="79.4568"
         id="use220" />
      <use
         xlink:href="#glyph0-8"
         x="233.795382"
         y="79.4568"
         id="use222" />
      <use
         xlink:href="#glyph0-9"
         x="240.568761"
         y="79.4568"
         id="use224" />
      <use
         xlink:href="#glyph0-10"
         x="258.109256"
         y="79.4568"
         id="use226" />
      <use
         xlink:href="#glyph0-8"
         x="267.438627"
         y="79.4568"
         id="use228" />
      <use
         xlink:href="#glyph0-24"
         x="274.212006"
         y="79.4568"
         id="use230" />
      <use
         xlink:href="#glyph0-12"
         x="289.292359"
         y="79.4568"
         id="use232" />
    </g>
    <g
       style="fill:rgb(53.334045%,52.941895%,53.334045%);fill-opacity:1;"
       id="g238">
      <use
         xlink:href="#glyph0-4"
         x="304.564411"
         y="79.4568"
         id="use236" />
    </g>
    <g
       style="fill:rgb(53.334045%,52.941895%,53.334045%);fill-opacity:1;"
       id="g246">
      <use
         xlink:href="#glyph0-22"
         x="315.427377"
         y="79.4568"
         id="use240" />
      <use
         xlink:href="#glyph0-5"
         x="330.795279"
         y="79.4568"
         id="use242" />
      <use
         xlink:href="#glyph0-12"
         x="338.271555"
         y="79.4568"
         id="use244" />
    </g>
    <path
       style=" stroke:none;fill-rule:nonzero;fill:rgb(53.334045%,52.941895%,53.334045%);fill-opacity:1;"
       d="M 0 6.671875 L 38.335938 52.074219 L 45.210938 46.265625 L 11.777344 6.671875 Z M 0 6.671875 "
       id="path248" />
    <path
       style=" stroke:none;fill-rule:nonzero;fill:rgb(53.334045%,52.941895%,53.334045%);fill-opacity:1;"
       d="M 15.132812 74.324219 C 7.710938 67.492188 3.453125 57.121094 3.453125 45.867188 C 3.453125 34.617188 7.710938 24.246094 15.132812 17.414062 L 19.195312 21.828125 C 13.003906 27.527344 9.453125 36.289062 9.453125 45.867188 C 9.453125 55.445312 13.003906 64.210938 19.195312 69.910156 Z M 15.132812 74.324219 "
       id="path250" />
    <path
       style=" stroke:none;fill-rule:nonzero;fill:rgb(53.334045%,52.941895%,53.334045%);fill-opacity:1;"
       d="M 43.410156 11.753906 C 59.421875 11.753906 72.851562 22.789062 76.527344 37.667969 L 76.527344 6.671875 L 6.289062 6.671875 L 6.289062 10.925781 C 7.1875 10.921875 8.125 11.332031 8.652344 12.089844 C 15.953125 19.203125 12.609375 26.164062 6.289062 32.460938 L 6.289062 58.074219 C 10.269531 59.1875 10.773438 64.859375 13.328125 67.683594 C 14.070312 68.535156 15.316406 69.070312 15.421875 70.285156 C 16.410156 72.742188 8.589844 80.921875 6.289062 80.996094 L 6.289062 85.0625 L 76.527344 85.0625 L 76.527344 54.066406 C 67.558594 92.285156 8.96875 85.625 9.296875 45.867188 C 9.296875 27.027344 24.570312 11.753906 43.410156 11.753906 "
       id="path252" />
    <path
       style=" stroke:none;fill-rule:nonzero;fill:rgb(53.334045%,52.941895%,53.334045%);fill-opacity:1;"
       d="M 27.285156 59.964844 C 27.105469 54.648438 33.898438 51.550781 37.808594 55.03125 L 45.210938 46.265625 L 38.335938 40.460938 L 0.675781 85.0625 L 12.453125 85.0625 L 29.53125 64.835938 C 28.15625 63.660156 27.285156 61.917969 27.285156 59.964844 "
       id="path254" />
    <path
       style=" stroke:none;fill-rule:nonzero;fill:rgb(53.334045%,52.941895%,53.334045%);fill-opacity:1;"
       d="M 37.808594 55.03125 L 29.53125 64.835938 C 35.820312 70.40625 44.332031 60.269531 37.808594 55.03125 "
       id="path256" />
  </g>
</svg>
